<svg xmlns="http://www.w3.org/2000/svg" viewBox="0 0 200 200"><g fill="none" stroke-width="2"><path stroke="#8385aa" d="M99.34 12.63q-.69.53-.57.83 14.02 34.58 28.14 69.11 2.6 6.37 6.26 12.2.28.43.11-.05c-1.36-3.74-3.47-7.43-4.36-11.27-.59-2.51-2.71-5.8-3.27-7.19q-12.88-31.8-25.82-63.5a.32.32 59.8 0 0-.49-.13" vector-effect="non-scaling-stroke"/><path stroke="#ff8386" d="m131.5 80.54 11.16-10.92a.53.5 45.8 0 0-.01-.73q-12.57-13.16-26.18-25.78" vector-effect="non-scaling-stroke"/><path stroke="#8385aa" d="m116.47 43.11-12.12-29.09a.56.49 68.1 0 0-.66-.34q-.94.38-.45 1.58 12.99 31.75 25.84 63.57c2.33 5.78 5.4 11.23 8.2 16.88q.23.47.18-.05-.11-.91-.3-1.34-3.06-6.79-5.66-13.78" vector-effect="non-scaling-stroke"/><path stroke="#820931" d="m116.47 43.11 15.03 37.43" vector-effect="non-scaling-stroke"/><path stroke="#ff8386" d="M84.3 40.35c-9.62 9.39-17.75 18.2-28.48 28.59a.54.52-44.2 0 0-.02.76l11.46 11.55a.53.45-57.7 0 0 .78-.24L84.49 40.5q.23-.56-.19-.15m-11.09 35.4c-.68.96-5.25 7.09-3.46 7.79" vector-effect="non-scaling-stroke"/><path stroke="#c88088" d="m69.75 83.54.54.46" vector-effect="non-scaling-stroke"/><path stroke="#adb2c9" d="M70.29 84q-2.38 4.24-3.63 8.95-.14.51.13.06c1.12-1.92 2.72-6.67 4.21-7.8" vector-effect="non-scaling-stroke"/><path stroke="#c88088" d="M71 85.21c.91.25 3.07-5.56 3.46-6.46" vector-effect="non-scaling-stroke"/><path stroke="#8387b1" d="M74.46 78.75c3.7-9.1 13.49-26.16 23.53-29.02a.42.21-17 0 1 .45.08l.06.19a.65.4-21 0 1-.45.58c-7.48 3.19-14.95 15.06-18.42 22.18" vector-effect="non-scaling-stroke"/><path stroke="#ff8386" d="m79.63 72.76-7.1 12.97a.67.62-56.2 0 0 .13.82l.59.49" vector-effect="non-scaling-stroke"/><path stroke="#8387b1" d="m73.25 87.04.29.71" vector-effect="non-scaling-stroke"/><path stroke="#adb2c9" d="M73.54 87.75q-1.94 3.68-2.87 7.7-.06.29.08.02l3.75-7.01" vector-effect="non-scaling-stroke"/><path stroke="#ff8386" d="m74.5 88.46 24.39 24.26a.54.41 45 0 0 .67.09l27-27a.69.55 56 0 0 .06-.75c-5.52-10.83-14.32-25.86-24.37-34.35" vector-effect="non-scaling-stroke"/><path stroke="#8387b1" d="M102.25 50.71q-4.77-4.21-9.77-.23c-8.01 6.36-14.36 16.4-19.27 25.27" vector-effect="non-scaling-stroke"/><path stroke="#830b37" d="M102.25 50.71C89.53 56.77 79.69 75.8 74.46 88.25" vector-effect="non-scaling-stroke"/><path stroke="#31397a" d="m74.46 88.25-.92-.5" vector-effect="non-scaling-stroke"/><path stroke="#830b37" d="M73.25 87.04q.43-.46.7-1.03 3.13-6.51 5.68-13.25" vector-effect="non-scaling-stroke"/><path stroke="#4c083a" d="M74.46 78.75c-2.1.79-2.46 4.45-3.75 4" vector-effect="non-scaling-stroke"/><path stroke="#830b37" d="M70.71 82.75q1.82-3.31 2.5-7" vector-effect="non-scaling-stroke"/><path stroke="#ad364f" d="m74.5 88.46-.04-.21" vector-effect="non-scaling-stroke"/><path stroke="#c7040f" d="m70.71 82.75-.96.79" vector-effect="non-scaling-stroke"/><path stroke="#763352" d="M71 85.21 70.29 84" vector-effect="non-scaling-stroke"/><path stroke="#8789b7" d="M89.32 152.81c-16.98 1.58-13.61-29.61 5.49-19.35q.56.3.49-.22l-1.09-7.74a2.35 2.16 2.8 0 0-1.82-1.85c-16.62-3.45-28.8 13.31-20.77 28.02q5.36 9.85 19.65 9.28 2.96-.12 3.31-2.87l.97-7.56q.09-.66-.48-.19-2.58 2.19-5.75 2.48m35.47-1.13-.29-28.03a.64.45 87.5 0 0-.5-.64l-8 .76a.55.47-3.3 0 0-.5.48v35.5a.5.5 0 0 0 .5.5h17.5a.79.68 6.7 0 0 .74-.5l2.05-7.24a.49.29 3.7 0 0-.53-.36l-10.5.08a.56.47 89.4 0 1-.47-.55m42.52-.12c-11.95-6.67-1.58-27.39 11.45-18.03q.61.43.49-.29l-1.22-7.76a2.33 2.29-88.8 0 0-1.81-1.92c-13.97-2.83-24.65 7.86-22.85 21.78 1.56 12.04 13.11 18.24 24.37 14.79a.89.7-7.8 0 0 .6-.62l1.14-8.51q.14-1.1-.72-.42c-3.21 2.54-7.87 2.99-11.45.98" vector-effect="non-scaling-stroke"/><path stroke="#80809f" d="m34 153.21 12.87.11a.86.6-8.4 0 1 .72.36l3.37 7.11a.7.67-18.7 0 0 .76.36l7.77-1.67a.51.49 69.1 0 0 .31-.74l-6.05-11.03" vector-effect="non-scaling-stroke"/><path stroke="#8789b7" d="m53.75 147.71-12.89-24.17q-.28-.52-.57.01L21.46 158.7a.56.36-66.1 0 0 .11.74l7.76 1.68a.78.57-67.7 0 0 .72-.44l3.95-7.47" vector-effect="non-scaling-stroke"/><path stroke="#070957" d="M53.75 147.71c-.72.17-.95.77-.56 1.41q2.46 3.99 4.23 8.39a.57.51-16.3 0 1-.43.7l-4.74 1.04a.86.65 68.4 0 1-.79-.48l-2.76-5.46a2.22 1.93 72.6 0 0-2-1.23L34 153.21" vector-effect="non-scaling-stroke"/><path stroke="#8181b1" d="M31.37 182.74a.38.38-27.4 0 0-.63-.2c-5.31 4.78-10-7.82-2.29-8.75a1.71 1.07 48.2 0 1 1.01.29q2.8 1.75 1.95-1.83a.87.74 1 0 0-.66-.58c-13.96-2.8-13.02 17.22-.27 13.94q1.46-.38.89-2.87m26.313-5.128a6.04 6.04 0 0 0-5.826-6.248l-1.14-.04a6.04 6.04 0 0 0-6.246 5.826l-.094 2.678a6.04 6.04 0 0 0 5.826 6.248l1.14.04a6.04 6.04 0 0 0 6.246-5.826l.094-2.678m95.027 5.728c-6.93 1.94-5.69-13.66 2.4-8.59a.51.4 23.6 0 0 .73-.19l.43-2.06a.87.45 13.2 0 0-.74-.63c-15.42-3.57-14.81 18.08.61 13.6a.83.72-8.9 0 0 .61-.72l-.01-5.25a.75.48-90 0 0-.48-.75h-2.76a.71.33 86.9 0 0-.3.75l.19 3.32a.85.38-13.2 0 1-.68.52m-77.45-.59.02-10.43a.82.53-89.5 0 0-.53-.83l-2.75.01a.49.46 89.4 0 0-.46.5l.05 13.44a.46.41-.7 0 0 .47.41l7.44-.08a.75.52 0 0 0 .75-.52v-1.75a.47.47-1.7 0 0-.5-.47l-4 .19a.47.47-1.2 0 1-.49-.47" vector-effect="non-scaling-stroke"/><path stroke="#8387b1" d="m100.15 182.76.07-10.76a.49.47-89.4 0 0-.47-.5H97a.5.5 0 0 0-.5.5v13.25a.7.49 89.6 0 0 .5.7l7.5-.16a.77.54-1 0 0 .75-.55v-1.74a.71.53-2.5 0 0-.75-.51l-4 .24a.46.34 89.6 0 1-.35-.47" vector-effect="non-scaling-stroke"/><path stroke="#808092" d="M124.5 182.75V180a.52.47-88.4 0 1 .5-.52l3.5.25a.93.4 5.1 0 0 .92-.3l.34-1.68a.72.43 2.9 0 0-.76-.5l-3.75-.01a.75.48 0 0 1-.75-.48v-2.51a.71.49 2.1 0 1 .75-.48l3.75.2a.96.35 3.6 0 0 .93-.28l.34-1.68a.73.44 2.9 0 0-.77-.51h-8a.75.45 90 0 0-.45.75l.02 12.75a.75.43 90 0 0 .43.75h8.25a.5.5 0 0 0 .5-.5l.01-1.75a.57.29-.8 0 0-.58-.28l-4.68.02a.5.49 0 0 1-.5-.49" vector-effect="non-scaling-stroke"/><path stroke="#808082" d="m174.69 179.59 3.56.16a.92.34 2.2 0 0 .96-.31q-.06-.8.28-1.43.43-.79-.74-.74l-3.51.17a.88.51-6.1 0 1-.84-.38q-.38-1.44 0-2.88a.89.5 5.5 0 1 .84-.37l3.76.16a.72.48 1.6 0 0 .75-.47V172a.75.5 0 0 0-.75-.5h-7.5a.78.69-2.3 0 0-.78.75q.59 6.38.06 12.75a.69.49-86.5 0 0 .47.75h8a.72.42-3.2 0 0 .76-.5q-.15-.7.17-1.32a.63.45 7.8 0 0-.68-.65l-4.25.2a.87.68 6.2 0 1-.93-.91q.44-1.18-.11-2.31a.49.47-10.7 0 1 .48-.67" vector-effect="non-scaling-stroke"/><path stroke="#8789b7" d="M35.83 146.28a.31.31-75.1 0 0 .27.45l8.82.04a.31.31 76 0 0 .28-.46l-4.39-8.12a.31.31-44.6 0 0-.54 0l-4.44 8.09" vector-effect="non-scaling-stroke"/><path stroke="#8181b1" d="M51.16 183.73a5.05 3.01 89.2 0 0 2.94-5.092 5.05 3.01 89.2 0 0-3.08-5.007 5.05 3.01 89.2 0 0-2.94 5.091 5.05 3.01 89.2 0 0 3.08 5.007" vector-effect="non-scaling-stroke"/></g><path fill="#fff" d="M0 0h200v200H0V0Zm99.34 12.63q-.69.53-.57.83 14.02 34.58 28.14 69.11 2.6 6.37 6.26 12.2.28.43.11-.05c-1.36-3.74-3.47-7.43-4.36-11.27-.59-2.51-2.71-5.8-3.27-7.19q-12.88-31.8-25.82-63.5a.32.32 59.8 0 0-.49-.13Zm32.16 67.91 11.16-10.92a.53.5 45.8 0 0-.01-.73q-12.57-13.16-26.18-25.78l-12.12-29.09a.56.49 68.1 0 0-.66-.34q-.94.38-.45 1.58 12.99 31.75 25.84 63.57c2.33 5.78 5.4 11.23 8.2 16.88q.23.47.18-.05-.11-.91-.3-1.34-3.06-6.79-5.66-13.78ZM84.3 40.35c-9.62 9.39-17.75 18.2-28.48 28.59a.54.52-44.2 0 0-.02.76l11.46 11.55a.53.45-57.7 0 0 .78-.24L84.49 40.5q.23-.56-.19-.15Zm-11.09 35.4c-.68.96-5.25 7.09-3.46 7.79l.54.46q-2.38 4.24-3.63 8.95-.14.51.13.06c1.12-1.92 2.72-6.67 4.21-7.8.91.25 3.07-5.56 3.46-6.46 3.7-9.1 13.49-26.16 23.53-29.02a.42.21-17 0 1 .45.08l.06.19a.65.4-21 0 1-.45.58c-7.48 3.19-14.95 15.06-18.42 22.18l-7.1 12.97a.67.62-56.2 0 0 .13.82l.59.49.29.71q-1.94 3.68-2.87 7.7-.06.29.08.02l3.75-7.01 24.39 24.26a.54.41 45 0 0 .67.09l27-27a.69.55 56 0 0 .06-.75c-5.52-10.83-14.32-25.86-24.37-34.35q-4.77-4.21-9.77-.23c-8.01 6.36-14.36 16.4-19.27 25.27Zm16.11 77.06c-16.98 1.58-13.61-29.61 5.49-19.35q.56.3.49-.22l-1.09-7.74a2.35 2.16 2.8 0 0-1.82-1.85c-16.62-3.45-28.8 13.31-20.77 28.02q5.36 9.85 19.65 9.28 2.96-.12 3.31-2.87l.97-7.56q.09-.66-.48-.19-2.58 2.19-5.75 2.48Zm35.47-1.13-.29-28.03a.64.45 87.5 0 0-.5-.64l-8 .76a.55.47-3.3 0 0-.5.48v35.5a.5.5 0 0 0 .5.5h17.5a.79.68 6.7 0 0 .74-.5l2.05-7.24a.49.29 3.7 0 0-.53-.36l-10.5.08a.56.47 89.4 0 1-.47-.55Zm42.52-.12c-11.95-6.67-1.58-27.39 11.45-18.03q.61.43.49-.29l-1.22-7.76a2.33 2.29-88.8 0 0-1.81-1.92c-13.97-2.83-24.65 7.86-22.85 21.78 1.56 12.04 13.11 18.24 24.37 14.79a.89.7-7.8 0 0 .6-.62l1.14-8.51q.14-1.1-.72-.42c-3.21 2.54-7.87 2.99-11.45.98ZM34 153.21l12.87.11a.86.6-8.4 0 1 .72.36l3.37 7.11a.7.67-18.7 0 0 .76.36l7.77-1.67a.51.49 69.1 0 0 .31-.74l-6.05-11.03-12.89-24.17q-.28-.52-.57.01L21.46 158.7a.56.36-66.1 0 0 .11.74l7.76 1.68a.78.57-67.7 0 0 .72-.44l3.95-7.47Zm-2.63 29.53a.38.38-27.4 0 0-.63-.2c-5.31 4.78-10-7.82-2.29-8.75a1.71 1.07 48.2 0 1 1.01.29q2.8 1.75 1.95-1.83a.87.74 1 0 0-.66-.58c-13.96-2.8-13.02 17.22-.27 13.94q1.46-.38.89-2.87Zm26.313-5.129a6.04 6.04 0 0 0-5.826-6.247l-1.14-.04a6.04 6.04 0 0 0-6.246 5.826l-.094 2.678a6.04 6.04 0 0 0 5.826 6.248l1.14.04a6.04 6.04 0 0 0 6.246-5.826l.094-2.678Zm95.027 5.729c-6.93 1.94-5.69-13.66 2.4-8.59a.51.4 23.6 0 0 .73-.19l.43-2.06a.87.45 13.2 0 0-.74-.63c-15.42-3.57-14.81 18.08.61 13.6a.83.72-8.9 0 0 .61-.72l-.01-5.25a.75.48-90 0 0-.48-.75h-2.76a.71.33 86.9 0 0-.3.75l.19 3.32a.85.38-13.2 0 1-.68.52Zm-77.45-.59.02-10.43a.82.53-89.5 0 0-.53-.83l-2.75.01a.49.46 89.4 0 0-.46.5l.05 13.44a.46.41-.7 0 0 .47.41l7.44-.08a.75.52 0 0 0 .75-.52v-1.75a.47.47-1.7 0 0-.5-.47l-4 .19a.47.47-1.2 0 1-.49-.47Zm24.89.01.07-10.76a.49.47-89.4 0 0-.47-.5H97a.5.5 0 0 0-.5.5v13.25a.7.49 89.6 0 0 .5.7l7.5-.16a.77.54-1 0 0 .75-.55v-1.74a.71.53-2.5 0 0-.75-.51l-4 .24a.46.34 89.6 0 1-.35-.47Zm24.35-.01V180a.52.47-88.4 0 1 .5-.52l3.5.25a.93.4 5.1 0 0 .92-.3l.34-1.68a.72.43 2.9 0 0-.76-.5l-3.75-.01a.75.48 0 0 1-.75-.48v-2.51a.71.49 2.1 0 1 .75-.48l3.75.2a.96.35 3.6 0 0 .93-.28l.34-1.68a.73.44 2.9 0 0-.77-.51h-8a.75.45 90 0 0-.45.75l.02 12.75a.75.43 90 0 0 .43.75h8.25a.5.5 0 0 0 .5-.5l.01-1.75a.57.29-.8 0 0-.58-.28l-4.68.02a.5.49 0 0 1-.5-.49Zm50.19-3.16 3.56.16a.92.34 2.2 0 0 .96-.31q-.06-.8.28-1.43.43-.79-.74-.74l-3.51.17a.88.51-6.1 0 1-.84-.38q-.38-1.44 0-2.88a.89.5 5.5 0 1 .84-.37l3.76.16a.72.48 1.6 0 0 .75-.47V172a.75.5 0 0 0-.75-.5h-7.5a.78.69-2.3 0 0-.78.75q.59 6.38.06 12.75a.69.49-86.5 0 0 .47.75h8a.72.42-3.2 0 0 .76-.5q-.15-.7.17-1.32a.63.45 7.8 0 0-.68-.65l-4.25.2a.87.68 6.2 0 1-.93-.91q.44-1.18-.11-2.31a.49.47-10.7 0 1 .48-.67Z"/><path fill="#060a55" d="M99.34 12.63a.32.32 59.8 0 1 .49.13q12.94 31.7 25.82 63.5c.56 1.39 2.68 4.68 3.27 7.19.89 3.84 3 7.53 4.36 11.27q.17.48-.11.05-3.66-5.83-6.26-12.2-14.12-34.53-28.14-69.11-.12-.3.57-.83Zm17.13 30.48 15.03 37.43q2.6 6.99 5.66 13.78.19.43.3 1.34.05.52-.18.05c-2.8-5.65-5.87-11.1-8.2-16.88q-12.85-31.82-25.84-63.57-.49-1.2.45-1.58a.56.49 68.1 0 1 .66.34l12.12 29.09Z"/><path fill="#fe070c" d="M55.82 68.94c10.73-10.39 18.86-19.2 28.48-28.59q.42-.41.19.15L68.04 81.01a.53.45-57.7 0 1-.78.24L55.8 69.7a.54.52-44.2 0 1 .02-.76Zm60.65-25.83q13.61 12.62 26.18 25.78a.53.5 45.8 0 1 .01.73L131.5 80.54l-15.03-37.43Z"/><path fill="#070e62" d="M102.25 50.71C89.53 56.77 79.69 75.8 74.46 88.25l-.92-.5-.29-.71q.43-.46.7-1.03 3.13-6.51 5.68-13.25c3.47-7.12 10.94-18.99 18.42-22.18a.65.4-21 0 0 .45-.58l-.06-.19a.42.21-17 0 0-.45-.08c-10.04 2.86-19.83 19.92-23.53 29.02-2.1.79-2.46 4.45-3.75 4q1.82-3.31 2.5-7c4.91-8.87 11.26-18.91 19.27-25.27q5-3.98 9.77.23Z"/><path fill="#fe070c" d="M102.25 50.71c10.05 8.49 18.85 23.52 24.37 34.35a.69.55 56 0 1-.06.75l-27 27a.54.41 45 0 1-.67-.09L74.5 88.46l-.04-.21c5.23-12.45 15.07-31.48 27.79-37.54ZM79.63 72.76q-2.55 6.74-5.68 13.25-.27.57-.7 1.03l-.59-.49a.67.62-56.2 0 1-.13-.82l7.1-12.97Zm-6.42 2.99q-.68 3.69-2.5 7l-.96.79c-1.79-.7 2.78-6.83 3.46-7.79Z"/><path fill="#900111" d="M74.46 78.75c-.39.9-2.55 6.71-3.46 6.46L70.29 84l-.54-.46.96-.79c1.29.45 1.65-3.21 3.75-4Z"/><path fill="#5b6492" d="m70.29 84 .71 1.21c-1.49 1.13-3.09 5.88-4.21 7.8q-.27.45-.13-.06 1.25-4.71 3.63-8.95Zm3.25 3.75.92.5.04.21-3.75 7.01q-.14.27-.08-.02.93-4.02 2.87-7.7Z"/><path fill="#0e126e" d="M89.32 152.81q3.17-.29 5.75-2.48.57-.47.48.19l-.97 7.56q-.35 2.75-3.31 2.87-14.29.57-19.65-9.28c-8.03-14.71 4.15-31.47 20.77-28.02a2.35 2.16 2.8 0 1 1.82 1.85l1.09 7.74q.07.52-.49.22c-19.1-10.26-22.47 20.93-5.49 19.35Zm35.94-.58 10.5-.08a.49.29 3.7 0 1 .53.36l-2.05 7.24a.79.68 6.7 0 1-.74.5H116a.5.5 0 0 1-.5-.5v-35.5a.55.47-3.3 0 1 .5-.48l8-.76a.64.45 87.5 0 1 .5.64l.29 28.03a.56.47 89.4 0 0 .47.55Zm42.05-.67c3.58 2.01 8.24 1.56 11.45-.98q.86-.68.72.42l-1.14 8.51a.89.7-7.8 0 1-.6.62c-11.26 3.45-22.81-2.75-24.37-14.79-1.8-13.92 8.88-24.61 22.85-21.78a2.33 2.29-88.8 0 1 1.81 1.92l1.22 7.76q.12.72-.49.29c-13.03-9.36-23.4 11.36-11.45 18.03Zm-113.56-3.85c-.72.17-.95.77-.56 1.41q2.46 3.99 4.23 8.39a.57.51-16.3 0 1-.43.7l-4.74 1.04a.86.65 68.4 0 1-.79-.48l-2.76-5.46a2.22 1.93 72.6 0 0-2-1.23L34 153.21l-3.95 7.47a.78.57-67.7 0 1-.72.44l-7.76-1.68a.56.36-66.1 0 1-.11-.74l18.83-35.15q.29-.53.57-.01l12.89 24.17Zm-17.92-1.43a.31.31-75.1 0 0 .27.45l8.82.04a.31.31 76 0 0 .28-.46l-4.39-8.12a.31.31-44.6 0 0-.54 0l-4.44 8.09Z"/><path fill="#fff" d="m35.83 146.28 4.44-8.09a.31.31-44.8 0 1 .54 0l4.39 8.12a.31.31 73.8 0 1-.28.46l-8.82-.04a.31.31-81.5 0 1-.27-.45Z"/><path fill="#00003f" d="m53.75 147.71 6.05 11.03a.51.49 69.1 0 1-.31.74l-7.77 1.67a.7.67-18.7 0 1-.76-.36l-3.37-7.11a.86.6-8.4 0 0-.72-.36L34 153.21l12.7-1.13a2.22 1.93 72.6 0 1 2 1.23l2.76 5.46a.86.65 68.4 0 0 .79.48l4.74-1.04a.57.51-16.3 0 0 .43-.7q-1.77-4.4-4.23-8.39c-.39-.64-.16-1.24.56-1.41Z"/><path fill="#030362" d="M31.37 182.74q.57 2.49-.89 2.87c-12.75 3.28-13.69-16.74.27-13.94a.87.74 1 0 1 .66.58q.85 3.58-1.95 1.83a1.71 1.07 48.2 0 0-1.01-.29c-7.71.93-3.02 13.53 2.29 8.75a.38.38-27.4 0 1 .63.2Zm26.22-2.45a6.04 6.04 0 0 1-6.248 5.825l-1.14-.04a6.04 6.04 0 0 1-5.825-6.246l.094-2.679a6.04 6.04 0 0 1 6.247-5.825l1.14.04a6.04 6.04 0 0 1 5.825 6.246l-.094 2.679Zm-6.43 3.44a5.05 3.01 89.2 0 0 2.94-5.092 5.05 3.01 89.2 0 0-3.08-5.007 5.05 3.01 89.2 0 0-2.94 5.091 5.05 3.01 89.2 0 0 3.08 5.007Zm102.23-.91-.19-3.32a.71.33 86.9 0 1 .3-.75h2.76a.75.48 90 0 1 .48.75l.01 5.25a.83.72-8.9 0 1-.61.72c-15.42 4.48-16.03-17.17-.61-13.6a.87.45 13.2 0 1 .74.63l-.43 2.06a.51.4 23.6 0 1-.73.19c-8.09-5.07-9.33 10.53-2.4 8.59a.85.38-13.2 0 0 .68-.52Zm-77.64.4 4-.19a.47.47-1.7 0 1 .5.47v1.75a.75.52 0 0 1-.75.52l-7.44.08a.46.41-.7 0 1-.47-.41L71.54 172a.49.46 89.4 0 1 .46-.5l2.75-.01a.82.53-89.5 0 1 .53.83l-.02 10.43a.47.47-1.2 0 0 .49.47Z"/><path fill="#070e62" d="m100.5 183.23 4-.24a.71.53-2.5 0 1 .75.51v1.74a.77.54-1 0 1-.75.55l-7.5.16a.7.49 89.6 0 1-.5-.7V172a.5.5 0 0 1 .5-.5h2.75a.49.47-89.4 0 1 .47.5l-.07 10.76a.46.34 89.6 0 0 .35.47Z"/><path fill="#000024" d="m125 183.24 4.68-.02a.57.29-.8 0 1 .58.28l-.01 1.75a.5.5 0 0 1-.5.5h-8.25a.75.43 90 0 1-.43-.75l-.02-12.75a.75.45 90 0 1 .45-.75h8a.73.44 2.9 0 1 .77.51l-.34 1.68a.96.35 3.6 0 1-.93.28l-3.75-.2a.71.49 2.1 0 0-.75.48v2.51a.75.48 0 0 0 .75.48l3.75.01a.72.43 2.9 0 1 .76.5l-.34 1.68a.93.4 5.1 0 1-.92.3l-3.5-.25a.52.47-88.4 0 0-.5.52v2.75a.5.49 0 0 0 .5.49Z"/><path fill="#000004" d="M174.21 180.26q.55 1.13.11 2.31a.87.68 6.2 0 0 .93.91l4.25-.2a.63.45 7.8 0 1 .68.65q-.32.62-.17 1.32a.72.42-3.2 0 1-.76.5h-8a.69.49-86.5 0 1-.47-.75q.53-6.37-.06-12.75a.78.69-2.3 0 1 .78-.75h7.5a.75.5 0 0 1 .75.5v1.5a.72.48 1.6 0 1-.75.47l-3.76-.16a.89.5 5.5 0 0-.84.37q-.38 1.44 0 2.88a.88.51-6.1 0 0 .84.38l3.51-.17q1.17-.05.74.74-.34.63-.28 1.43a.92.34 2.2 0 1-.96.31l-3.56-.16a.49.47-10.7 0 0-.48.67Z"/><ellipse fill="#fff" rx="5.05" ry="3.01" transform="rotate(89.2 -65.051 115.244)"/></svg>